<?xml version="1.0" encoding="UTF-8"?>
<svg xmlns="http://www.w3.org/2000/svg" viewBox="0 0 50 32">
  <defs>
    <style>
      .cls-1 {
        fill: #fa9903;
      }

      .cls-2 {
        fill: #fff;
      }

      .cls-3 {
        fill: #474747;
      }

      .cls-4 {
        fill: #378ef9;
      }
    </style>
  </defs>
  <g id="BG">
    <rect class="cls-2" y="0" width="50" height="32" rx="4" ry="4"/>
  </g>
  <g id="LOGOS">
    <g>
      <path class="cls-4" d="m27.58,13.14c.63.27,1.3.29,1.96.35.09,0,.18,0,.32.02-.29.24-.54.42-.94.33-.39-.08-.79-.11-1.18-.22-.17-.05-.23-.04-.23.16.02,1.47.02,2.94.03,4.4,0,.22.06.27.26.17.66-.32,1.1-.84,1.41-1.48.03-.07.02-.27.19-.18.13.07.29.14.17.37-.42.79-.99,1.39-1.83,1.74-.18.07-.33.06-.5-.01-1.08-.45-1.7-1.29-2.05-2.35-.29-.88-.3-1.78-.19-2.69.02-.18.09-.25.29-.26.61-.01,1.21-.08,1.8-.23.11-.03.23-.03.31-.12h.19Z"/>
      <path class="cls-3" d="m4,17.55c.26,0,.51-.04.76-.1.55-.13.77-.38.78-.94.02-.72.03-1.45.02-2.17,0-.32.18-.26.37-.27.21-.01.31.02.3.27-.03.76,0,1.53-.06,2.29-.08.93-.47,1.35-1.39,1.53-.26.05-.52.11-.79.12v-.73Z"/>
      <path class="cls-3" d="m12.3,15.39c0,.79-.02,1.59,0,2.38,0,.3-.14.27-.34.27-.19,0-.35.03-.34-.27.02-1.05,0-2.1,0-3.15,0-.22,0-.45.27-.52.27-.07.42.09.56.29.6.85,1.21,1.7,1.81,2.55.06.08.12.16.2.27.18-.25.34-.48.5-.71.5-.71,1-1.43,1.49-2.14.13-.19.28-.33.54-.25.24.07.25.27.25.47,0,1.08,0,2.16,0,3.24,0,.28-.17.23-.32.22-.15,0-.36.09-.35-.22.02-.79,0-1.59,0-2.39-.14,0-.16.11-.21.17-.49.71-.96,1.42-1.45,2.13-.32.46-.64.46-.96,0-.49-.71-.97-1.42-1.45-2.13-.06-.08-.12-.16-.17-.24l-.06.02Z"/>
      <path class="cls-4" d="m33.57,16.05c0-.58,0-1.16,0-1.74,0-.11-.03-.24.15-.23.99.02,1.98-.06,2.96.04.57.06.81.33.87.89.03.35.04.69,0,1.04-.06.47-.28.71-.76.77-.77.1-1.54.03-2.31.04-.25,0-.36.05-.33.32.02.17-.01.35,0,.52.03.27-.05.36-.33.34-.21-.01-.26-.08-.25-.27.01-.57,0-1.14,0-1.71Zm1.84-1.38s0,0,0,0c-.35,0-.7,0-1.05,0-.16,0-.22.05-.21.21,0,.41.01.81,0,1.22,0,.18.07.22.24.22.53,0,1.05,0,1.58,0,1,0,1.09-.1,1.03-1.09,0-.02,0-.04,0-.06-.04-.33-.18-.47-.52-.48-.35-.01-.7,0-1.05,0Z"/>
      <path class="cls-3" d="m24.21,17.99c-.53.18-.84-.04-1.01-.51-.16-.46-.47-.61-.96-.56-.51.05-1.03.02-1.54,0-.17,0-.29.03-.36.2-.07.16-.19.29-.25.46-.14.41-.43.48-.81.44-.21-.02-.19-.08-.1-.21.7-1.15,1.39-2.31,2.1-3.46.24-.39.58-.4.82-.01.71,1.18,1.4,2.37,2.1,3.56.01.02.02.06.02.08Zm-3.36-1.74h1.62c-.28-.45-.54-.87-.82-1.32-.28.46-.53.87-.8,1.32Z"/>
      <path class="cls-3" d="m6.84,15.65c0-.43.02-.86,0-1.29-.01-.26.08-.31.31-.29.2.01.37-.03.36.28-.02.77,0,1.55,0,2.33,0,.45.12.59.56.64.55.07,1.11.07,1.67,0,.47-.05.58-.19.58-.65,0-.79.01-1.57,0-2.36,0-.26.12-.26.3-.24.16.02.38-.09.37.24-.02.81,0,1.61,0,2.42,0,.81-.34,1.19-1.15,1.25-.63.05-1.26.05-1.89,0-.75-.06-1.09-.43-1.1-1.17,0-.39,0-.78,0-1.16Z"/>
      <path class="cls-4" d="m42.35,17.99c-.5.15-.81-.01-.95-.47-.13-.4-.41-.51-.82-.48-.61.04-1.22.02-1.82,0-.17,0-.27.04-.34.2-.04.09-.11.18-.14.27-.16.43-.44.65-.94.48-.04-.08.05-.15.09-.22.63-1.12,1.27-2.24,1.9-3.36.12-.21.24-.41.52-.41.27,0,.39.2.5.4.63,1.12,1.26,2.24,1.89,3.36.04.07.07.14.11.22Zm-2.52-3.27c-.35.62-.66,1.19-.99,1.78.62,0,1.19,0,1.76,0,.13,0,.24,0,.14-.18-.29-.51-.58-1.03-.9-1.6Z"/>
      <path class="cls-1" d="m32.15,15.27c0,.82-.67,1.47-1.5,1.47-.81,0-1.49-.66-1.5-1.45,0-.82.68-1.51,1.51-1.51.82,0,1.49.68,1.49,1.49Zm-1.54-1.16c-.14.39-.3.79-.84.74-.06,0-.16-.03-.19.06-.03.08.05.13.11.17.31.22.45.49.3.86-.02.06-.07.17.03.22.07.04.14-.02.2-.06.28-.19.55-.26.84-.02.07.05.17.13.25.08.09-.06.03-.18,0-.25-.12-.34-.01-.59.28-.78,0,0,.02-.01.02-.02.04-.06.16-.09.11-.19-.03-.08-.13-.05-.19-.05-.36,0-.62-.13-.72-.51-.02-.08-.05-.18-.19-.23Z"/>
      <path class="cls-4" d="m41.39,14.1c.46-.1.85-.01,1.17.38.27.33.62.59.92.9.16.17.26.19.44.01.31-.33.68-.6.98-.94.31-.35.66-.45,1.1-.36.03.11-.08.15-.14.21-.54.53-1.08,1.07-1.64,1.59-.18.17-.25.34-.24.59.02.43-.01.86.01,1.29.01.25-.1.27-.31.28-.23,0-.31-.06-.3-.29.02-.46,0-.92,0-1.38,0-.18-.06-.3-.18-.43-.61-.61-1.21-1.22-1.82-1.84Z"/>
      <path class="cls-3" d="m17.91,16.05c0-.58.02-1.16,0-1.74-.01-.29.16-.24.33-.24.17,0,.34-.04.33.24-.02,1.15-.02,2.3,0,3.45,0,.29-.17.24-.33.24-.17,0-.35.06-.33-.24.02-.57,0-1.14,0-1.71Z"/>
    </g>
  </g>
</svg>